<svg xmlns="http://www.w3.org/2000/svg" viewBox="0 0 76 76" width="100%" height="100%" fill="none">
  <defs>
    <!-- Golden Honey Drop Gradient -->
    <linearGradient id="honeyDripFill" x1="0%" y1="0%" x2="0%" y2="100%">
      <stop offset="0%" stop-color="#f59e0b" />
      <stop offset="60%" stop-color="#eab308" />
      <stop offset="100%" stop-color="#ca8a04" />
    </linearGradient>
  </defs>

  <!-- Honey Surface & Drop inside Jar -->
  <path d="M38 12 C35 18, 29 27, 29 38 C29 47, 33 52, 38 52 C43 52, 47 47, 47 38 C47 27, 41 18, 38 12 Z" fill="url(#honeyDripFill)" />
  <ellipse cx="36" cy="42" rx="2" ry="4" fill="#ffffff" opacity="0.6" transform="rotate(-20 36 42)" />

  <!-- Honey Pot Outer Contour (Warm Brown, Thick Bold 5.5px) -->
  <path d="M22 8 C19 8, 17 10, 19 13 C22 17, 18 27, 10 37 C3 46, 5 61, 14 69 C23 76, 51 77, 60 69 C67 62, 69 46, 62 37 C54 27, 50 17, 53 13 C55 10, 53 8, 50 8 Z" 
        stroke="#6d431d" stroke-width="5.5" stroke-linecap="round" stroke-linejoin="round" />
  
  <!-- Pot Top Opening Rim -->
  <ellipse cx="36" cy="8" rx="17" ry="4.5" stroke="#6d431d" stroke-width="5.5" fill="none" />

  <!-- Leaf on Bottom Right (Thick & Crisp) -->
  <path d="M57 67 C63 68, 71 63, 75 48" stroke="#6d431d" stroke-width="4.5" stroke-linecap="round" />
  <path d="M68 56 C74 48, 81 45, 81 45 C81 45, 78 55, 71 60 C67 62, 66 59, 68 56 Z" fill="#6d431d" />
</svg>
